<svg xmlns="http://www.w3.org/2000/svg" xmlns:xlink="http://www.w3.org/1999/xlink" fill="none" version="1.1" width="208" height="40" viewBox="0 0 208 40"><g><rect x="0" y="0" width="208" height="40" rx="4" fill="#000000" fill-opacity="1" style="mix-blend-mode:passthrough"/><g><path d="M76.7317,11.709L78.328,11.709L78.328,19.2682L76.7317,19.2682L76.7317,11.709ZM74.65047,14.79075L77.2167,14.79075L77.2167,16.131L74.65047,16.131L74.65047,14.79075ZM73.61497,11.981L75.1912,11.981L75.1912,19.130000000000003L73.61497,19.130000000000003L73.61497,11.981ZM68.55122,19.867800000000003L78.328,19.867800000000003L78.328,23.5542L70.25822,23.5542L70.25822,25.5607L68.58122,25.5607L68.58122,22.3108L76.667,22.3108L76.667,21.189999999999998L68.55122,21.189999999999998L68.55122,19.867800000000003ZM68.58122,24.8125L78.8515,24.8125L78.8515,26.1437L68.58122,26.1437L68.58122,24.8125ZM69.37822,12.36125Q70.34647,12.36125,71.10222,12.76775Q71.85822,13.174,72.28397,13.9015Q72.70997,14.62875,72.70997,15.59Q72.70997,16.55125,72.28247,17.279Q71.85497,18.006500000000003,71.10072,18.4163Q70.34647,18.826,69.37597,18.826Q68.40547,18.826,67.65247,18.4157Q66.89972,18.005499999999998,66.47297,17.277250000000002Q66.04622,16.549,66.04622,15.5945Q66.04622,14.62875,66.47222,13.9015Q66.89822,13.174,67.65397,12.76775Q68.40972,12.36125,69.37822,12.36125ZM69.37822,13.6785Q68.84747,13.6785,68.43647,13.9185Q68.02572,14.1585,67.79472,14.58475Q67.56372,15.011,67.56372,15.593Q67.56372,16.16225,67.79472,16.592Q68.02572,17.02175,68.43872,17.26175Q68.85197,17.50175,69.37372,17.50175Q69.90872,17.50175,70.31497,17.26175Q70.72147,17.02175,70.95697,16.592Q71.19247,16.16225,71.19247,15.593Q71.19247,15.011,70.95697,14.58475Q70.72147,14.1585,70.31497,13.9185Q69.90872,13.6785,69.37822,13.6785ZM81.3352,12.522L83.0012,12.522L83.0012,14.671L86.4322,14.671L86.4322,12.522L88.0802,12.522L88.0802,19.444699999999997L81.3352,19.444699999999997L81.3352,12.522ZM83.0012,15.97725L83.0012,18.1047L86.4322,18.1047L86.4322,15.97725L83.0012,15.97725ZM87.663,15.28425L91.53999999999999,15.28425L91.53999999999999,16.651249999999997L87.663,16.651249999999997L87.663,15.28425ZM91.1017,11.702L92.7855,11.702L92.7855,20.17L91.1017,20.17L91.1017,11.702ZM83.1817,20.8477L92.7855,20.8477L92.7855,26.1437L83.1817,26.1437L83.1817,20.8477ZM91.1445,22.171799999999998L84.8315,22.171799999999998L84.8315,24.8035L91.1445,24.8035L91.1445,22.171799999999998ZM99.88329999999999,12.95975L106.7148,12.95975L106.7148,19.8627L99.88329999999999,19.8627L99.88329999999999,12.95975ZM105.0718,14.30175L101.52629999999999,14.30175L101.52629999999999,18.5208L105.0718,18.5208L105.0718,14.30175ZM109.1005,11.695L110.7755,11.695L110.7755,22.3888L109.1005,22.3888L109.1005,11.695ZM110.28280000000001,16.042L112.8375,16.042L112.8375,17.42875L110.28280000000001,17.42875L110.28280000000001,16.042ZM101.532,24.6705L111.3733,24.6705L111.3733,26.0285L101.532,26.0285L101.532,24.6705ZM101.532,21.357L103.2088,21.357L103.2088,25.306L101.532,25.306L101.532,21.357ZM114.09530000000001,17.608L127.313,17.608L127.313,18.9482L114.09530000000001,18.9482L114.09530000000001,17.608ZM115.7938,15.2695L125.7413,15.2695L125.7413,16.600749999999998L115.7938,16.600749999999998L115.7938,15.2695ZM115.7938,12.087250000000001L125.601,12.087250000000001L125.601,13.4295L117.4525,13.4295L117.4525,16.38375L115.7938,16.38375L115.7938,12.087250000000001ZM115.6375,20.019L125.6388,20.019L125.6388,23.6515L117.3175,23.6515L117.3175,25.231L115.66749999999999,25.231L115.66749999999999,22.436799999999998L123.989,22.436799999999998L123.989,21.305300000000003L115.6375,21.305300000000003L115.6375,20.019ZM115.66749999999999,24.8662L126.056,24.8662L126.056,26.1705L115.66749999999999,26.1705L115.66749999999999,24.8662ZM139.20229999999998,11.693L140.8793,11.693L140.8793,26.314L139.20229999999998,26.314L139.20229999999998,11.693ZM134.9023,13.24125L136.561,13.24125Q136.561,14.8695,136.20780000000002,16.362000000000002Q135.8545,17.8545,135.0683,19.186799999999998Q134.28199999999998,20.518700000000003,132.98829999999998,21.6545Q131.6945,22.79,129.8065,23.7048L128.92000000000002,22.369500000000002Q131.0378,21.3507,132.35680000000002,20.0397Q133.676,18.7288,134.289,17.10275Q134.9023,15.47675,134.9023,13.53125L134.9023,13.24125ZM129.6433,13.24125L135.65730000000002,13.24125L135.65730000000002,14.590499999999999L129.6433,14.590499999999999L129.6433,13.24125Z" fill="#FFFFFF" fill-opacity="1" style="mix-blend-mode:passthrough"/></g></g></svg>