<svg xmlns="http://www.w3.org/2000/svg" xmlns:xlink="http://www.w3.org/1999/xlink" fill="none" version="1.1" width="14" height="14" viewBox="0 0 14 14"><g transform="matrix(1,0,0,-1,0,28)"><path d="M7,14Q8.91406,14.0273438,10.5,14.929688Q12.0859,15.85938,13.0703,17.5Q14,19.16797,14,21Q14,22.83203,13.0703,24.5Q12.0859,26.1406,10.5,27.0703Q8.91406,27.9727,7,28Q5.08594,27.9727,3.5,27.0703Q1.91406,26.1406,0.929688,24.5Q0,22.83203,0,21Q0,19.16797,0.929688,17.5Q1.91406,15.85938,3.5,14.929688Q5.08594,14.0273438,7,14ZM6.34375,18.59375L6.34375,20.34375L6.34375,18.59375L6.34375,20.34375L4.59375,20.34375Q3.99219,20.39844,3.9375,21Q3.99219,21.60156,4.59375,21.65625L6.34375,21.65625L6.34375,23.40625Q6.39844,24.0078,7,24.0625Q7.60156,24.0078,7.65625,23.40625L7.65625,21.65625L9.40625,21.65625Q10.0078,21.60156,10.0625,21Q10.0078,20.39844,9.40625,20.34375L7.65625,20.34375L7.65625,18.59375Q7.60156,17.99219,7,17.9375Q6.39844,17.99219,6.34375,18.59375Z" fill="#000000" fill-opacity="1" style="mix-blend-mode:passthrough"/></g></svg>