<svg xmlns="http://www.w3.org/2000/svg" xmlns:xlink="http://www.w3.org/1999/xlink" fill="none" version="1.1" width="12.25" height="14" viewBox="0 0 12.25 14"><g transform="matrix(1,0,0,-1,0,28)"><path d="M4.15625,27.3438Q4.10156,27.9453,3.5,28Q2.89844,27.9453,2.84375,27.3438L2.84375,26.25L1.75,26.25Q1.01172,26.2227,0.519531,25.7305Q0.0273438,25.238300000000002,0,24.5L0,24.0625L0,22.75L0,15.75Q0.0273438,15.01172,0.519531,14.519531Q1.01172,14.0273438,1.75,14L10.5,14Q11.2383,14.0273438,11.7305,14.519531Q12.2227,15.01172,12.25,15.75L12.25,22.75L12.25,24.0625L12.25,24.5Q12.2227,25.238300000000002,11.7305,25.7305Q11.2383,26.2227,10.5,26.25L9.40625,26.25L9.40625,27.3438Q9.35156,27.9453,8.75,28Q8.14844,27.9453,8.09375,27.3438L8.09375,26.25L4.15625,26.25L4.15625,27.3438ZM1.3125,22.75L3.5,22.75L1.3125,22.75L3.5,22.75L3.5,21.21875L1.3125,21.21875L1.3125,22.75ZM1.3125,19.90625L3.5,19.90625L1.3125,19.90625L3.5,19.90625L3.5,18.15625L1.3125,18.15625L1.3125,19.90625ZM4.8125,19.90625L7.4375,19.90625L4.8125,19.90625L7.4375,19.90625L7.4375,18.15625L4.8125,18.15625L4.8125,19.90625ZM8.75,19.90625L10.9375,19.90625L8.75,19.90625L10.9375,19.90625L10.9375,18.15625L8.75,18.15625L8.75,19.90625ZM10.9375,21.21875L8.75,21.21875L10.9375,21.21875L8.75,21.21875L8.75,22.75L10.9375,22.75L10.9375,21.21875ZM10.9375,16.84375L10.9375,15.75L10.9375,16.84375L10.9375,15.75Q10.9102,15.33984,10.5,15.3125L8.75,15.3125L8.75,16.84375L10.9375,16.84375ZM7.4375,16.84375L7.4375,15.3125L7.4375,16.84375L7.4375,15.3125L4.8125,15.3125L4.8125,16.84375L7.4375,16.84375ZM3.5,16.84375L3.5,15.3125L3.5,16.84375L3.5,15.3125L1.75,15.3125Q1.33984,15.33984,1.3125,15.75L1.3125,16.84375L3.5,16.84375ZM7.4375,21.21875L4.8125,21.21875L7.4375,21.21875L4.8125,21.21875L4.8125,22.75L7.4375,22.75L7.4375,21.21875Z" fill="#6B7280" fill-opacity="1" style="mix-blend-mode:passthrough"/></g></svg>