<svg xmlns="http://www.w3.org/2000/svg" xmlns:xlink="http://www.w3.org/1999/xlink" fill="none" version="1.1" width="16" height="16" viewBox="0 0 16 16"><g transform="matrix(1,0,0,-1,0,32)"><path d="M8,32Q10.1875,31.9688,12,30.9375Q13.8125,29.875,14.9375,28Q16,26.0938,16,24Q16,21.90625,14.9375,20Q13.8125,18.125,12,17.0625Q10.1875,16.03125,8,16Q5.8125,16.03125,4,17.0625Q2.1875,18.125,1.0625,20Q0,21.90625,0,24Q0,26.0938,1.0625,28Q2.1875,29.875,4,30.9375Q5.8125,31.9688,8,32ZM7.25,28.25L7.25,24L7.25,28.25L7.25,24Q7.25,23.59375,7.59375,23.375L10.5938,21.375Q11.1875,21.03125,11.625,21.59375Q11.9688,22.1875,11.4062,22.625L8.75,24.40625L8.75,28.25Q8.6875,28.9375,8,29Q7.3125,28.9375,7.25,28.25Z" fill="#000000" fill-opacity="1" style="mix-blend-mode:passthrough"/></g></svg>