<svg xmlns="http://www.w3.org/2000/svg" xmlns:xlink="http://www.w3.org/1999/xlink" fill="none" version="1.1" width="96" height="96" viewBox="0 0 96 96"><defs><clipPath id="master_svg0_138_5110"><rect x="34.875" y="33" width="26.25" height="30" rx="0"/></clipPath></defs><g><rect x="0" y="0" width="96" height="96" rx="48" fill="#F5F0F7" fill-opacity="1" style="mix-blend-mode:passthrough"/><g><rect x="34.875" y="30" width="26.25" height="36" rx="0" fill="#000000" fill-opacity="0" style="mix-blend-mode:passthrough"/><g clip-path="url(#master_svg0_138_5110)"><g transform="matrix(1,0,0,-1,0,127.2890625)"><g><path d="M48,78.64453125Q50.0508,78.64453125,51.75,79.64063125Q53.449200000000005,80.63673125,54.5039,82.39453125Q55.5,84.15233125,55.5,86.14453125Q55.5,88.13673125,54.5039,89.89453125Q53.449200000000005,91.65233125,51.75,92.64843125Q50.0508,93.64453125,48,93.64453125Q45.9492,93.64453125,44.25,92.64843125Q42.55078,91.65233125,41.49609,89.89453125Q40.5,88.13673125,40.5,86.14453125Q40.5,84.15233125,41.49609,82.39453125Q42.55078,80.63673125,44.25,79.64063125Q45.9492,78.64453125,48,78.64453125ZM45.3047,75.83203125Q40.91016,75.71483125,37.92188,72.78515125Q34.992188,69.79687125,34.875,65.40234125Q34.875,64.64062525,35.402344,64.17187525Q35.871094,63.64453125,36.63281,63.64453125L59.3672,63.64453125Q60.1289,63.64453125,60.5977,64.17187525Q61.125,64.64062525,61.125,65.40234125Q61.0078,69.79687125,58.0781,72.78515125Q55.0898,75.71483125,50.6953,75.83203125L45.3047,75.83203125Z" fill="#B8A7C9" fill-opacity="1" style="mix-blend-mode:passthrough"/></g></g></g></g></g></svg>