<svg xmlns="http://www.w3.org/2000/svg" xmlns:xlink="http://www.w3.org/1999/xlink" fill="none" version="1.1" width="248" height="192" viewBox="0 0 248 192"><defs><clipPath id="master_svg0_118_31952"><rect x="108.9921875" y="67" width="30" height="30" rx="0"/></clipPath></defs><g><rect x="0" y="0" width="248" height="192" rx="8" fill="#F3F4F6" fill-opacity="1" style="mix-blend-mode:passthrough"/><g><rect x="54.3984375" y="64" width="139.203125" height="64" rx="0" fill="#000000" fill-opacity="0" style="mix-blend-mode:passthrough"/><g><rect x="108.9921875" y="64" width="30" height="36" rx="0" fill="#000000" fill-opacity="0" style="mix-blend-mode:passthrough"/><g clip-path="url(#master_svg0_118_31952)"><g transform="matrix(1,0,0,-1,0,191.5390625)"><g><path d="M108.9921875,118.26953125Q109.0507813,119.85153125,110.1054675,120.90623125Q111.1601575,121.96093125,112.7421875,122.01953125L135.2421875,122.01953125Q136.8241875,121.96093125,137.8788875,120.90623125Q138.9335875,119.85153125,138.9921875,118.26953125L138.9921875,99.51953125Q138.9335875,97.93750125,137.8788875,96.88281125Q136.8241875,95.82812505,135.2421875,95.76953125L112.7421875,95.76953125Q111.1601575,95.82812505,110.1054675,96.88281125Q109.0507813,97.93750125,108.9921875,99.51953125L108.9921875,118.26953125ZM127.9765875,112.00003125Q127.5077875,112.64453125,126.8046875,112.64453125Q126.0429875,112.64453125,125.6327875,112.00003125L120.5351875,104.55859125L119.0116875,106.49223125Q118.5429675,107.01953125,117.8984375,107.01953125Q117.2539075,107.01953125,116.7851575,106.49223125L113.0351575,101.80469125Q112.5664075,101.10156125,112.8593775,100.33984125Q113.2695275,99.57812125,114.1484375,99.51953125L119.7733875,99.51953125L133.8359875,99.51953125Q134.6562875,99.51953125,135.0663875,100.28125125Q135.4179875,101.04297125,135.0077875,101.68750125L127.9765875,112.00003125ZM115.5546875,112.64453125Q117.1367175,112.70313125,118.0156275,114.05073125Q118.7187475,115.45703125,118.0156275,116.86333125Q117.1367175,118.21093125,115.5546875,118.26953125Q113.9726575,118.21093125,113.0937475,116.86333125Q112.3906275,115.45703125,113.0937475,114.05073125Q113.9726575,112.70313125,115.5546875,112.64453125Z" fill="#9CA3AF" fill-opacity="1" style="mix-blend-mode:passthrough"/></g></g></g></g><g><rect x="54.3984375" y="108" width="139.203125" height="20" rx="0" fill="#000000" fill-opacity="0" style="mix-blend-mode:passthrough"/><g><path d="M55.72758,119.9998L56.6914,119.9998Q57.87024,119.9998,58.80912,119.96770000000001Q59.74799,119.9353,60.594120000000004,119.8498Q61.44024,119.7642,62.32071,119.5984L62.45371,120.5561Q61.53999,120.7272,60.6744,120.8171Q59.8088,120.9068,58.85527,120.9433Q57.901740000000004,120.9798,56.6914,120.9798L55.72758,120.9798L55.72758,119.9998ZM55.72758,112.62841L61.47874,112.62841L61.47874,113.58675L56.87996,113.58675L56.87996,120.3582L55.72758,120.3582L55.72758,112.62841ZM64.3603,111.42309L65.5212,111.42309L65.5212,124.1073L64.3603,124.1073L64.3603,111.42309ZM60.73937,116.01247000000001L64.8481,116.01247000000001L64.8481,116.97847L60.73937,116.97847L60.73937,116.01247000000001ZM80.6388,111.41762L81.7967,111.41762L81.7967,124.1018L80.6388,124.1018L80.6388,111.41762ZM75.1209,112.39675Q76.0606,112.39675,76.786,112.93925Q77.5114,113.48175,77.9237,114.47334000000001Q78.3361,115.46472,78.3361,116.80959Q78.3361,118.1602,77.9237,119.1544Q77.5114,120.1484,76.786,120.6911Q76.0606,121.2336,75.1209,121.2336Q74.1899,121.2336,73.4601,120.6911Q72.7304,120.1484,72.318,119.1544Q71.9059,118.1602,71.9059,116.80959Q71.9059,115.46472,72.318,114.47334000000001Q72.7304,113.48175,73.4601,112.93925Q74.1899,112.39675,75.1209,112.39675ZM75.1209,113.43844Q74.5014,113.43844,74.0295,113.85362Q73.5579,114.26859,73.29169999999999,115.02591Q73.0255,115.78322,73.0255,116.80959Q73.0255,117.83619,73.29169999999999,118.6005Q73.5579,119.3646,74.0295,119.7824Q74.5014,120.2002,75.1209,120.2002Q75.7404,120.2002,76.2122,119.7824Q76.6841,119.3646,76.9503,118.6005Q77.2165,117.83619,77.2165,116.80959Q77.2165,115.78322,76.9503,115.02591Q76.6841,114.26859,76.2122,113.85362Q75.7404,113.43844,75.1209,113.43844ZM87.4019,112.08284L88.3618,112.08284L88.3618,113.37434Q88.3618,114.58775,87.9322,115.63687Q87.5026,116.686,86.7188,117.46256Q85.9352,118.2389,84.8784,118.6473L84.2607,117.72025Q85.21770000000001,117.36784,85.9243,116.71422Q86.6308,116.06038,87.0163,115.19872Q87.4019,114.33684,87.4019,113.37434L87.4019,112.08284ZM87.613,112.08284L88.55340000000001,112.08284L88.55340000000001,113.46163Q88.55340000000001,114.10169,88.7787,114.70478Q89.0043,115.30766,89.4131,115.82653Q89.82220000000001,116.34519,90.3868,116.74463Q90.9514,117.14384,91.6354,117.38184L91.0198,118.2949Q90.0075,117.9145,89.23859999999999,117.19613Q88.4699,116.47775,88.0413,115.51634Q87.613,114.55472,87.613,113.46163L87.613,112.08284ZM92.9844,111.42856L94.14529999999999,111.42856L94.14529999999999,119.1067L92.9844,119.1067L92.9844,111.42856ZM93.8284,114.69756L96.0139,114.69756L96.0139,115.6745L93.8284,115.6745L93.8284,114.69756ZM90.1129,119.4497Q91.4134,119.4497,92.34020000000001,119.722Q93.2673,119.9942,93.7689,120.5113Q94.2707,121.0282,94.2707,121.7601Q94.2707,122.4868,93.7689,123.0022Q93.2673,123.5176,92.34020000000001,123.7899Q91.4134,124.0623,90.1129,124.0623Q88.8262,124.0623,87.8895,123.7899Q86.9531,123.5176,86.4512,123.0022Q85.9494,122.4868,85.9494,121.7601Q85.9494,121.0282,86.4512,120.5113Q86.9531,119.9942,87.8895,119.722Q88.8262,119.4497,90.1129,119.4497ZM90.1129,120.3743Q89.17750000000001,120.3743,88.5027,120.538Q87.8278,120.7016,87.4606,121.0103Q87.0933,121.3187,87.0933,121.7601Q87.0933,122.19630000000001,87.4606,122.5076Q87.8278,122.8189,88.5027,122.9825Q89.17750000000001,123.1459,90.1129,123.1459Q91.0535,123.1459,91.7299,122.9825Q92.4063,122.8189,92.7692,122.5076Q93.1323,122.19630000000001,93.1323,121.7601Q93.1323,121.3187,92.7692,121.0103Q92.4063,120.7016,91.7299,120.538Q91.0535,120.3743,90.1129,120.3743ZM103.7756,112.52034L104.7245,112.52034L104.7245,114.78397Q104.7245,115.83287,104.4614,116.84328Q104.19839999999999,117.85369,103.72290000000001,118.7344Q103.2473,119.6151,102.6055,120.3006Q101.9639,120.986,101.21209999999999,121.3852L100.5,120.4533Q101.1911,120.107,101.7887,119.5101Q102.3865,118.91290000000001,102.833,118.1437Q103.27969999999999,117.37441,103.5275,116.51559Q103.7756,115.65678,103.7756,114.78397L103.7756,112.52034ZM103.98140000000001,112.52034L104.92490000000001,112.52034L104.92490000000001,114.78397Q104.92490000000001,115.62025,105.1688,116.44559Q105.41290000000001,117.27094,105.8572,118.0037Q106.3015,118.7363,106.88419999999999,119.3082Q107.46719999999999,119.88,108.1366,120.21770000000001L107.4191,121.1441Q106.6806,120.7534,106.0563,120.0976Q105.4322,119.4416,104.9687,118.5933Q104.5053,117.74475,104.2433,116.77219Q103.98140000000001,115.79941,103.98140000000001,114.78397L103.98140000000001,112.52034ZM109.24080000000001,111.42856L110.4072,111.42856L110.4072,124.0909L109.24080000000001,124.0909L109.24080000000001,111.42856ZM110.1392,116.55059L112.4786,116.55059L112.4786,117.533L110.1392,117.533L110.1392,116.55059ZM116.9255,112.81325L117.89070000000001,112.81325L117.89070000000001,114.10913Q117.89070000000001,115.26675,117.4444,116.26534Q116.9981,117.26372,116.1962,118.0079Q115.3943,118.7521,114.3266,119.138L113.7252,118.21940000000001Q114.6822,117.88103,115.4,117.25956Q116.1177,116.63809,116.5215,115.82281Q116.9255,115.00731,116.9255,114.10913L116.9255,112.81325ZM117.1537,112.81325L118.1081,112.81325L118.1081,114.10913Q118.1081,114.74919,118.3404,115.34484Q118.5729,115.9405,119.0012,116.45303Q119.4298,116.96556,120.0138,117.35734Q120.5979,117.74891,121.3012,117.98078L120.7084,118.8884Q119.6571,118.525,118.8591,117.82438Q118.0611,117.12372,117.6074,116.16734Q117.1537,115.21075,117.1537,114.10913L117.1537,112.81325ZM114.0367,112.47353L120.9665,112.47353L120.9665,113.42312L114.0367,113.42312L114.0367,112.47353ZM122.7655,111.43709L123.9319,111.43709L123.9319,120.6998L122.7655,120.6998L122.7655,111.43709ZM115.7996,122.8543L124.3199,122.8543L124.3199,123.8096L115.7996,123.8096L115.7996,122.8543ZM115.7996,119.8312L116.952,119.8312L116.952,123.2745L115.7996,123.2745L115.7996,119.8312ZM135.63150000000002,111.41762L136.7893,111.41762L136.7893,124.1018L135.63150000000002,124.1018L135.63150000000002,111.41762ZM130.1135,112.39675Q131.05329999999998,112.39675,131.77859999999998,112.93925Q132.50400000000002,113.48175,132.9164,114.47334000000001Q133.3287,115.46472,133.3287,116.80959Q133.3287,118.1602,132.9164,119.1544Q132.50400000000002,120.1484,131.77859999999998,120.6911Q131.05329999999998,121.2336,130.1135,121.2336Q129.1825,121.2336,128.4528,120.6911Q127.723,120.1484,127.3107,119.1544Q126.8986,118.1602,126.8986,116.80959Q126.8986,115.46472,127.3107,114.47334000000001Q127.723,113.48175,128.4528,112.93925Q129.1825,112.39675,130.1135,112.39675ZM130.1135,113.43844Q129.494,113.43844,129.0222,113.85362Q128.5506,114.26859,128.2843,115.02591Q128.0181,115.78322,128.0181,116.80959Q128.0181,117.83619,128.2843,118.6005Q128.5506,119.3646,129.0222,119.7824Q129.494,120.2002,130.1135,120.2002Q130.733,120.2002,131.2049,119.7824Q131.67669999999998,119.3646,131.9429,118.6005Q132.2092,117.83619,132.2092,116.80959Q132.2092,115.78322,131.9429,115.02591Q131.67669999999998,114.26859,131.2049,113.85362Q130.733,113.43844,130.1135,113.43844ZM144.2321,118.8529L145.32760000000002,118.8529L145.32760000000002,120.4286L147.54070000000002,120.4286L147.54070000000002,118.8529L148.61360000000002,118.8529L148.61360000000002,123.9222L144.2321,123.9222L144.2321,118.8529ZM145.32760000000002,121.3042L145.32760000000002,123.0107L147.54070000000002,123.0107L147.54070000000002,121.3042L145.32760000000002,121.3042ZM151.0693,118.7751L151.9691,118.7751L151.9691,119.8303Q151.9691,120.6845,151.68009999999998,121.5062Q151.3913,122.3276,150.8064,122.9862Q150.2215,123.6447,149.3502,124.0227L148.762,123.1422Q149.5258,122.8202,150.039,122.2888Q150.5522,121.7573,150.8108,121.1135Q151.0693,120.4695,151.0693,119.8303L151.0693,118.7751ZM151.3108,118.7751L152.2077,118.7751L152.2077,119.8303Q152.2077,120.5023,152.4676,121.1544Q152.7277,121.8063,153.2437,122.3269Q153.7597,122.8475,154.515,123.1422L153.9214,124.0227Q153.0392,123.65559999999999,152.46120000000002,123.0107Q151.88330000000002,122.36580000000001,151.59699999999998,121.5416Q151.3108,120.7173,151.3108,119.8303L151.3108,118.7751ZM149.1491,114.39591L152.5522,114.39591L152.5522,115.35666L149.1491,115.35666L149.1491,114.39591ZM146.2415,111.98222Q147.1843,111.98222,147.92239999999998,112.34972Q148.66070000000002,112.71722,149.07999999999998,113.37303Q149.49939999999998,114.02884,149.49939999999998,114.89619Q149.49939999999998,115.75478,149.07999999999998,116.41759Q148.66070000000002,117.08041,147.92239999999998,117.44812Q147.1843,117.81562,146.2415,117.81562Q145.2987,117.81562,144.56040000000002,117.44812Q143.82240000000002,117.08041,143.40300000000002,116.41759Q142.9837,115.75478,142.9837,114.89619Q142.9837,114.02884,143.40300000000002,113.37303Q143.82240000000002,112.71722,144.56040000000002,112.34972Q145.2987,111.98222,146.2415,111.98222ZM146.2415,112.95062Q145.619,112.95062,145.1316,113.19584Q144.6442,113.44084,144.37099999999998,113.88163Q144.0978,114.32241,144.0978,114.89619Q144.0978,115.46122,144.37099999999998,115.90484000000001Q144.6442,116.34825000000001,145.1316,116.59784Q145.619,116.84722,146.2415,116.84722Q146.8641,116.84722,147.3471,116.59784Q147.8303,116.34825000000001,148.1077,115.90484000000001Q148.3853,115.46122,148.3853,114.89619Q148.3853,114.32241,148.1077,113.88163Q147.8303,113.44084,147.3471,113.19584Q146.8641,112.95062,146.2415,112.95062ZM152.03640000000001,111.42856L153.2028,111.42856L153.2028,118.1335L152.03640000000001,118.1335L152.03640000000001,111.42856ZM157.113,119.0179L158.264,119.0179L158.264,120.4804L164.45999999999998,120.4804L164.45999999999998,119.0179L165.61,119.0179L165.61,123.9222L157.113,123.9222L157.113,119.0179ZM158.264,121.3865L158.264,122.9834L164.45999999999998,122.9834L164.45999999999998,121.3865L158.264,121.3865ZM155.664,117.19394L167.106,117.19394L167.106,118.1381L155.664,118.1381L155.664,117.19394ZM160.79399999999998,111.56309L161.79500000000002,111.56309L161.79500000000002,112.13031Q161.79500000000002,112.79072,161.519,113.37084Q161.244,113.95075,160.762,114.43397Q160.281,114.91697,159.644,115.29519Q159.007,115.67319,158.268,115.92584Q157.53,116.17828,156.74599999999998,116.30122L156.315,115.38487Q156.997,115.28994,157.652,115.08037Q158.30700000000002,114.87081,158.878,114.56434Q159.45,114.25787,159.88,113.87681Q160.311,113.49575,160.55200000000002,113.05212Q160.79399999999998,112.6085,160.79399999999998,112.13031L160.79399999999998,111.56309ZM160.98399999999998,111.56309L161.976,111.56309L161.976,112.13031Q161.976,112.59997,162.22199999999998,113.03944Q162.46699999999998,113.47869,162.902,113.86412Q163.337,114.24934,163.904,114.56019Q164.471,114.87081,165.126,115.08475Q165.78199999999998,115.29869,166.454,115.38487L166.024,116.30122Q165.248,116.17828,164.514,115.92584Q163.78,115.67319,163.139,115.29081Q162.497,114.90844,162.01600000000002,114.42106Q161.535,113.93369,161.25900000000001,113.35794Q160.98399999999998,112.78219,160.98399999999998,112.13031L160.98399999999998,111.56309ZM177.75900000000001,111.42309L178.912,111.42309L178.912,124.08539999999999L177.75900000000001,124.08539999999999L177.75900000000001,111.42309ZM169.348,112.66362L170.5,112.66362L170.5,120.5067L169.348,120.5067L169.348,112.66362ZM169.348,119.8172L170.386,119.8172Q171.83499999999998,119.8172,173.341,119.6897Q174.848,119.5619,176.449,119.2283L176.594,120.2192Q174.945,120.5607,173.417,120.6926Q171.89100000000002,120.8243,170.386,120.8243L169.348,120.8243L169.348,119.8172ZM189.993,111.41762L191.16,111.41762L191.16,124.1018L189.993,124.1018L189.993,111.41762ZM190.892,116.41519L193.231,116.41519L193.231,117.39212L190.892,117.39212L190.892,116.41519ZM181.96800000000002,119.9657L182.963,119.9657Q184.138,119.9657,185.109,119.9292Q186.081,119.8924,186.98,119.7973Q187.878,119.7019,188.821,119.5308L188.955,120.5163Q187.983,120.6928,187.062,120.7882Q186.142,120.8836,185.149,120.916Q184.157,120.9481,182.963,120.9481L181.96800000000002,120.9481L181.96800000000002,119.9657ZM181.96800000000002,112.65028L187.841,112.65028L187.841,113.60228000000001L183.121,113.60228000000001L183.121,120.4058L181.96800000000002,120.4058L181.96800000000002,112.65028Z" fill="#9CA3AF" fill-opacity="1" style="mix-blend-mode:passthrough"/></g></g></g><g><rect x="29.734375" y="84" width="188.53125" height="24" rx="0" fill="#000000" fill-opacity="0" style="mix-blend-mode:passthrough"/></g></g></svg>