<svg xmlns="http://www.w3.org/2000/svg" xmlns:xlink="http://www.w3.org/1999/xlink" fill="none" version="1.1" width="37" height="33" viewBox="0 0 37 33"><g transform="matrix(1,0,0,-1,0,66)"><path d="M36.9123,55.2363Q37.2192,54.334,36.452,53.689499999999995L33.0764,51.1113Q33.2299,50.337900000000005,33.2299,49.5Q33.2299,48.6621,33.0764,47.8887L36.452,45.3105Q37.2192,44.666,36.9123,43.7637Q36.3753,42.60352,35.6848,41.50781L35.3012,40.99219Q34.5341,39.96094,33.6134,38.99414Q32.8463,38.28516,31.7722,38.54297L27.476,39.70313Q25.9416,38.67188,24.1004,38.0918L23.1798,34.35352Q22.8729,33.451172,21.7222,33.257812Q20.1878,33,18.5,33Q16.8122,33,15.2011,33.257812Q14.1271,33.451172,13.8202,34.35352L12.8996,38.0918Q11.0584,38.67188,9.52399,39.70313L5.22779,38.54297Q4.15373,38.28516,3.38655,38.99414Q2.38922,39.96094,1.69876,40.99219L1.31517,41.50781Q0.624704,42.60352,0.0876778,43.6992Q-0.219194,44.666,0.547986,45.3105L3.92358,47.8242Q3.77014,48.6621,3.77014,49.5Q3.77014,50.337900000000005,3.92358,51.1113L0.547986,53.689499999999995Q-0.219194,54.334,0.0876778,55.2363Q0.624704,56.3965,1.31517,57.4922L1.69876,58.0078Q2.38922,59.039100000000005,3.38655,60.0059Q4.15373,60.7148,5.22779,60.457L9.52399,59.2969Q11.0584,60.3281,12.8996,60.9727L13.8202,64.6465Q14.1271,65.5488,15.2778,65.7422Q16.8122,66,18.5,66Q20.1878,66,21.7989,65.7422Q22.8729,65.5488,23.1798,64.6465L24.1004,60.9727Q25.9416,60.3281,27.476,59.2969L31.7722,60.457Q32.8463,60.7148,33.6134,60.0059Q34.6108,59.039100000000005,35.378,58.0078L35.6848,57.4922Q36.3753,56.3965,36.9123,55.2363ZM18.5,44.3438Q21.9523,44.4082,23.7935,46.9219Q25.4813,49.5,23.7935,52.0781Q21.9523,54.5918,18.5,54.6562Q15.0477,54.5918,13.2065,52.0781Q11.5187,49.5,13.2065,46.9219Q15.0477,44.4082,18.5,44.3438Z" fill="#000000" fill-opacity="1" style="mix-blend-mode:passthrough"/></g></svg>