<svg xmlns="http://www.w3.org/2000/svg" xmlns:xlink="http://www.w3.org/1999/xlink" fill="none" version="1.1" width="18" height="15.75" viewBox="0 0 18 15.75"><g transform="matrix(1,0,0,-1,0,31.5)"><path d="M7.66406,28.898400000000002L11.9883,24.57422L7.66406,28.898400000000002L11.9883,24.57422Q12.375,24.1875,12.375,23.625Q12.375,23.0625,11.9883,22.67578L7.66406,18.35156Q7.3125,18,6.82031,18Q6.32812,18,5.97656,18.35156Q5.625,18.70312,5.625,19.19531L5.625,21.375L1.125,21.375Q0.632812,21.375,0.316406,21.69141Q0,22.00781,0,22.5L0,24.75Q0,25.24219,0.316406,25.558590000000002Q0.632812,25.875,1.125,25.875L5.625,25.875L5.625,28.0547Q5.625,28.5469,5.97656,28.898400000000002Q6.32812,29.25,6.82031,29.25Q7.3125,29.25,7.66406,28.898400000000002ZM12.375,18L14.625,18L12.375,18L14.625,18Q15.1172,18,15.4336,18.31641Q15.75,18.63281,15.75,19.125L15.75,28.125Q15.75,28.6172,15.4336,28.9336Q15.1172,29.25,14.625,29.25L12.375,29.25Q11.8828,29.25,11.5664,29.5664Q11.25,29.8828,11.25,30.375Q11.25,30.8672,11.5664,31.1836Q11.8828,31.5,12.375,31.5L14.625,31.5Q16.0664,31.4648,17.0156,30.5156Q17.9648,29.5664,18,28.125L18,19.125Q17.9648,17.68359,17.0156,16.734375Q16.0664,15.7851562,14.625,15.75L12.375,15.75Q11.8828,15.75,11.5664,16.066406Q11.25,16.382812,11.25,16.875Q11.25,17.36719,11.5664,17.68359Q11.8828,18,12.375,18Z" fill="#FFFFFF" fill-opacity="1" style="mix-blend-mode:passthrough"/></g></svg>