<svg xmlns="http://www.w3.org/2000/svg" xmlns:xlink="http://www.w3.org/1999/xlink" fill="none" version="1.1" width="15" height="15" viewBox="0 0 15 15"><g transform="matrix(1,0,0,-1,0,30)"><path d="M14.5781,27.4219Q15,27.8906,15,28.5Q15,29.1094,14.5781,29.5781Q14.1094,30,13.5,30Q12.8906,30,12.4219,29.5781L7.5,24.60938L2.57812,29.5781Q2.10938,30,1.5,30Q0.890625,30,0.421875,29.5781Q0,29.1094,0,28.5Q0,27.8906,0.421875,27.4219L5.39062,22.5L0.421875,17.57812Q0,17.10938,0,16.5Q0,15.890625,0.421875,15.421875Q0.890625,15,1.5,15Q2.10938,15,2.57812,15.421875L7.5,20.39062L12.4219,15.421875Q12.8906,15,13.5,15Q14.1094,15,14.5781,15.421875Q15,15.890625,15,16.5Q15,17.10938,14.5781,17.57812L9.60938,22.5L14.5781,27.4219Z" fill="#FFFFFF" fill-opacity="1" style="mix-blend-mode:passthrough"/></g></svg>