<svg xmlns="http://www.w3.org/2000/svg" xmlns:xlink="http://www.w3.org/1999/xlink" fill="none" version="1.1" width="8" height="16" viewBox="0 0 8 16"><defs><clipPath id="master_svg0_150_04252"><rect x="0" y="0" width="8" height="16" rx="0"/></clipPath></defs><g clip-path="url(#master_svg0_150_04252)"><g transform="matrix(1,0,0,-1,0,30.6875)"><g><path d="M0.28125,23.0625Q0,22.75,0,22.34375Q0,21.9375,0.28125,21.625L6.28125,15.625Q6.59375,15.34375,7,15.34375Q7.40625,15.34375,7.71875,15.625Q8,15.9375,8,16.34375Q8,16.75,7.71875,17.0625L2.40625,22.34375L7.71875,27.62495Q8,27.93755,8,28.34375Q8,28.74995,7.71875,29.06255Q7.40625,29.34375,7,29.34375Q6.59375,29.34375,6.28125,29.06255L0.28125,23.0625Z" fill="#6B7280" fill-opacity="1" style="mix-blend-mode:passthrough"/></g></g></g></svg>