<svg xmlns="http://www.w3.org/2000/svg" version="1.1" width="1024px" height="870.4px" style="shape-rendering:geometricPrecision; text-rendering:geometricPrecision; image-rendering:optimizeQuality; fill-rule:evenodd; clip-rule:evenodd" viewBox="0.0 65.28 1024.0 870.4">
<path style="opacity:1" fill="#fefdfb" d="M -0.5,-0.5 C 340.833,-0.5 682.167,-0.5 1023.5,-0.5C 1023.5,340.833 1023.5,682.167 1023.5,1023.5C 682.167,1023.5 340.833,1023.5 -0.5,1023.5C -0.5,682.167 -0.5,340.833 -0.5,-0.5 Z" />
<path style="opacity:1" fill="#fea6a9" d="M 630.5,147.5 C 642.669,149.041 654.669,151.541 666.5,155C 724.215,170.179 781.882,185.512 839.5,201C 854.477,205.117 862.144,214.95 862.5,230.5C 862.629,235.983 861.796,241.316 860,246.5C 837.693,325.057 815.693,403.723 794,482.5C 787.378,499.065 775.211,505.565 757.5,502C 754.471,501.268 751.471,500.435 748.5,499.5C 736.974,512.732 722.474,517.732 705,514.5C 704.333,485.167 704.333,455.833 705,426.5C 710.738,426.342 716.571,426.176 722.5,426C 724.333,425.5 725.5,424.333 726,422.5C 732.405,361.532 738.071,300.532 743,239.5C 741.829,238.107 740.329,237.273 738.5,237C 680.664,231.194 622.83,225.361 565,219.5C 562.966,219.354 561.299,220.02 560,221.5C 559.258,227.155 558.091,232.655 556.5,238C 547.5,238.667 538.5,238.667 529.5,238C 528.966,228.541 529.466,219.041 531,209.5C 535.99,195.339 545.99,188.339 561,188.5C 574.507,189.473 588.007,190.473 601.5,191.5C 602.901,181.561 605.401,171.894 609,162.5C 614.438,154.875 621.605,149.875 630.5,147.5 Z" />
<path style="opacity:1" fill="#fefcfb" d="M 637.5,180.5 C 675.853,189.171 714.186,198.005 752.5,207C 759.363,209.732 766.363,212.066 773.5,214C 793.036,219.181 812.536,224.348 832,229.5C 831.991,233.554 831.324,237.554 830,241.5C 814.522,296.098 799.355,350.765 784.5,405.5C 775.909,403.186 767.242,401.186 758.5,399.5C 763.333,350.506 768.166,301.506 773,252.5C 773.667,245.5 773.667,238.5 773,231.5C 768.757,217.442 759.257,209.609 744.5,208C 707.206,203.049 669.873,198.549 632.5,194.5C 633.565,189.546 635.232,184.879 637.5,180.5 Z" />
<path style="opacity:1" fill="#fea7a9" d="M 508.5,235.5 C 511.564,242.553 516.898,247.053 524.5,249C 567.669,249.831 610.669,249.665 653.5,248.5C 677.624,252.957 691.624,267.29 695.5,291.5C 694.822,378.176 694.155,465.009 693.5,552C 693.508,553.707 693.842,555.207 694.5,556.5C 688.968,577.198 675.635,589.365 654.5,593C 515.5,593.667 376.5,593.667 237.5,593C 214.115,587.28 200.949,572.446 198,548.5C 197.333,463.5 197.333,378.5 198,293.5C 200.76,270.411 213.26,255.577 235.5,249C 255.791,247.727 276.124,247.06 296.5,247C 302.821,244.674 307.987,240.84 312,235.5C 315.703,226.672 319.703,218.006 324,209.5C 330.341,202.246 338.175,197.413 347.5,195C 390.538,194.027 433.538,194.361 476.5,196C 487.999,199.159 496.499,205.992 502,216.5C 504.474,222.757 506.641,229.09 508.5,235.5 Z" />
<path style="opacity:1" fill="#fe9296" d="M 508.5,235.5 C 512.893,241.872 518.893,246.039 526.5,248C 568.832,248.5 611.165,248.667 653.5,248.5C 610.669,249.665 567.669,249.831 524.5,249C 516.898,247.053 511.564,242.553 508.5,235.5 Z" />
<path style="opacity:1" fill="#fefcfa" d="M 459.5,282.5 C 517.523,280.255 561.689,303.588 592,352.5C 617.423,403.715 614.756,453.381 584,501.5C 546.546,548.768 498.046,566.602 438.5,555C 394.495,541.992 363.329,514.492 345,472.5C 324.776,414.272 335.942,363.105 378.5,319C 401.59,298.121 428.59,285.954 459.5,282.5 Z" />
<path style="opacity:1" fill="#fefcfa" d="M 256.5,296.5 C 269.837,296.333 283.171,296.5 296.5,297C 300.843,298.01 304.01,300.51 306,304.5C 306.933,315.906 306.6,327.239 305,338.5C 302.9,341.467 300.066,343.3 296.5,344C 282.833,344.667 269.167,344.667 255.5,344C 251.333,342.5 248.5,339.667 247,335.5C 246.333,325.5 246.333,315.5 247,305.5C 248.775,300.888 251.942,297.888 256.5,296.5 Z" />
<path style="opacity:1" fill="#fea7a9" d="M 460.5,310.5 C 515.028,308.831 553.194,332.831 575,382.5C 589.569,429.349 579.403,469.849 544.5,504C 508.56,532.706 469.227,538.372 426.5,521C 379.573,495.991 358.74,456.824 364,403.5C 375.453,350.878 407.62,319.878 460.5,310.5 Z" />
<path style="opacity:1" fill="#fefbfa" d="M 756.5,428.5 C 763.204,430.289 769.871,432.289 776.5,434.5C 772.833,447.167 769.167,459.833 765.5,472.5C 764.833,472.833 764.167,473.167 763.5,473.5C 759.482,472.492 755.482,471.492 751.5,470.5C 752.586,456.388 754.253,442.388 756.5,428.5 Z" />
<path style="opacity:1" fill="#fe9296" d="M 695.5,291.5 C 695.823,379.855 695.49,468.189 694.5,556.5C 693.842,555.207 693.508,553.707 693.5,552C 694.155,465.009 694.822,378.176 695.5,291.5 Z" />
<path style="opacity:1" fill="#582657" d="M 157.5,673.5 C 162.398,679.526 164.731,686.526 164.5,694.5C 163.38,718.122 151.046,731.288 127.5,734C 119.841,734.5 112.174,734.666 104.5,734.5C 104.667,748.504 104.5,762.504 104,776.5C 103.5,777 103,777.5 102.5,778C 94.6554,778.822 86.9887,778.656 79.5,777.5C 79.5108,738.139 79.5108,698.472 79.5,658.5C 97.8706,658.098 116.204,658.598 134.5,660C 143.732,661.945 151.399,666.445 157.5,673.5 Z" />
<path style="opacity:1" fill="#2d052e" d="M 157.5,673.5 C 151.399,666.445 143.732,661.945 134.5,660C 116.204,658.598 97.8706,658.098 79.5,658.5C 79.5108,698.472 79.5108,738.139 79.5,777.5C 78.5014,737.67 78.1681,697.67 78.5,657.5C 97.5466,657.065 116.547,657.565 135.5,659C 145.122,660.627 152.456,665.46 157.5,673.5 Z" />
<path style="opacity:1" fill="#582757" d="M 401.5,665.5 C 402.491,672.313 402.825,679.313 402.5,686.5C 408.842,686.334 415.175,686.5 421.5,687C 422.642,693.084 422.809,699.251 422,705.5C 421.5,706 421,706.5 420.5,707C 414.509,707.499 408.509,707.666 402.5,707.5C 402.047,723.238 402.547,738.904 404,754.5C 404.833,756.667 406.333,758.167 408.5,759C 412.75,759.419 416.917,758.919 421,757.5C 422.261,757.759 423.261,758.426 424,759.5C 424.667,765.167 424.667,770.833 424,776.5C 413.112,780.644 402.278,780.478 391.5,776C 384.162,771.168 379.996,764.334 379,755.5C 378.5,739.503 378.333,723.503 378.5,707.5C 373.968,707.818 369.634,707.485 365.5,706.5C 382.833,706.167 382.833,705.833 365.5,705.5C 365.5,699.5 365.5,693.5 365.5,687.5C 370.43,687.803 375.263,687.469 380,686.5C 380.5,679.508 380.666,672.508 380.5,665.5C 387.167,665.5 393.833,665.5 400.5,665.5C 400.833,693.5 401.167,693.5 401.5,665.5 Z" />
<path style="opacity:1" fill="#fdfbfa" d="M 104.5,678.5 C 112.903,678.13 121.236,678.63 129.5,680C 135.957,683.066 139.29,688.232 139.5,695.5C 139.119,705.434 134.119,711.601 124.5,714C 117.842,714.5 111.175,714.666 104.5,714.5C 104.5,702.5 104.5,690.5 104.5,678.5 Z" />
<path style="opacity:1" fill="#562555" d="M 591.5,777.5 C 591.217,776.711 590.717,776.044 590,775.5C 589.839,757.093 589.339,739.426 588.5,722.5C 587.041,715.2 583.041,709.7 576.5,706C 566.119,704.386 559.285,708.553 556,718.5C 555.667,737.5 555.333,756.5 555,775.5C 554.5,776.667 553.667,777.5 552.5,778C 545.986,778.82 539.653,778.653 533.5,777.5C 534.547,776.922 534.38,776.256 533,775.5C 532.5,746.169 532.333,716.835 532.5,687.5C 539.321,686.345 546.321,686.179 553.5,687C 554.282,689.74 554.782,692.574 555,695.5C 567.173,683.374 581.007,681.207 596.5,689C 600.34,691.674 603.673,694.841 606.5,698.5C 621.509,682.885 638.509,680.385 657.5,691C 663.772,696.043 667.606,702.543 669,710.5C 669.667,732.5 669.667,754.5 669,776.5C 668.5,777 668,777.5 667.5,778C 661.167,778.667 654.833,778.667 648.5,778C 648,777.5 647.5,777 647,776.5C 646.667,758.167 646.333,739.833 646,721.5C 642.243,707.541 633.743,703.041 620.5,708C 616.577,711.677 614.077,716.177 613,721.5C 612.667,739.833 612.333,758.167 612,776.5C 611.5,777 611,777.5 610.5,778C 603.986,778.82 597.653,778.653 591.5,777.5 Z" />
<path style="opacity:1" fill="#562555" d="M 306.5,684.5 C 336.608,682.108 355.108,695.441 362,724.5C 364.019,753.33 351.186,771.497 323.5,779C 296.146,781.923 278.312,770.423 270,744.5C 264.737,713.648 276.904,693.648 306.5,684.5 Z" />
<path style="opacity:1" fill="#562555" d="M 466.5,684.5 C 494.916,682.126 513.083,694.459 521,721.5C 524.306,742.267 517.806,759.1 501.5,772C 478.16,784.393 456.993,781.559 438,763.5C 425.385,744.785 424.385,725.452 435,705.5C 442.851,694.338 453.351,687.338 466.5,684.5 Z" />
<path style="opacity:1" fill="#562555" d="M 717.5,684.5 C 746.311,681.797 764.811,694.131 773,721.5C 776.302,742.28 769.802,759.113 753.5,772C 732.891,783.15 713.224,781.817 694.5,768C 676.771,747.52 674.937,725.687 689,702.5C 696.734,693.558 706.234,687.558 717.5,684.5 Z" />
<path style="opacity:1" fill="#582657" d="M 808.5,776.5 C 808.167,711.167 807.833,711.167 807.5,776.5C 800.578,776.812 793.744,776.479 787,775.5C 786.333,746.5 786.333,717.5 787,688.5C 793.744,687.521 800.578,687.188 807.5,687.5C 808.323,690.977 808.823,694.644 809,698.5C 817.242,686.532 828.242,682.532 842,686.5C 842.811,693.414 842.645,700.248 841.5,707C 825.173,702.576 814.673,708.41 810,724.5C 809.832,742.005 809.332,759.338 808.5,776.5 Z" />
<path style="opacity:1" fill="#562555" d="M 848.5,686.5 C 856.507,686.334 864.507,686.5 872.5,687C 881.437,707.802 889.604,728.969 897,750.5C 903.727,728.981 911.227,707.814 919.5,687C 927.167,686.333 934.833,686.333 942.5,687C 943.022,687.561 943.355,688.228 943.5,689C 929.024,726.451 913.858,763.617 898,800.5C 888.261,814.291 875.261,819.624 859,816.5C 858.333,810.167 858.333,803.833 859,797.5C 864.745,797.007 870.245,795.507 875.5,793C 879.541,787.92 882.541,782.253 884.5,776C 872.069,746.874 859.736,717.707 847.5,688.5C 847.863,687.817 848.196,687.15 848.5,686.5 Z" />
<path style="opacity:1" fill="#140115" d="M 195.5,658.5 C 188.833,658.5 182.167,658.5 175.5,658.5C 175.832,698.004 175.499,737.337 174.5,776.5C 174.5,736.833 174.5,697.167 174.5,657.5C 181.687,657.175 188.687,657.509 195.5,658.5 Z" />
<path style="opacity:1" fill="#390b3a" d="M 401.5,665.5 C 401.167,693.5 400.833,693.5 400.5,665.5C 393.833,665.5 387.167,665.5 380.5,665.5C 380.666,672.508 380.5,679.508 380,686.5C 375.263,687.469 370.43,687.803 365.5,687.5C 365.5,693.5 365.5,699.5 365.5,705.5C 382.833,705.833 382.833,706.167 365.5,706.5C 364.778,706.082 364.278,705.416 364,704.5C 363.333,698.833 363.333,693.167 364,687.5C 368.737,686.531 373.57,686.197 378.5,686.5C 378.203,679.442 378.536,672.442 379.5,665.5C 386.99,664.181 394.323,664.181 401.5,665.5 Z" />
<path style="opacity:1" fill="#fdfbfa" d="M 308.5,705.5 C 322.941,703.142 332.441,708.808 337,722.5C 338.114,731.01 337.448,739.344 335,747.5C 326.245,760.394 315.078,762.894 301.5,755C 292.255,744.165 290.089,731.999 295,718.5C 298.101,712.563 302.601,708.23 308.5,705.5 Z" />
<path style="opacity:1" fill="#fdfbfa" d="M 467.5,705.5 C 490.066,704.907 499.899,715.907 497,738.5C 494.003,754.257 484.503,761.09 468.5,759C 456.631,753.776 450.964,744.61 451.5,731.5C 451.58,719.454 456.913,710.788 467.5,705.5 Z" />
<path style="opacity:1" fill="#fdfbfa" d="M 719.5,705.5 C 738.737,703.905 748.737,712.738 749.5,732C 750.121,748.321 742.454,757.488 726.5,759.5C 715.249,758.419 708.083,752.419 705,741.5C 701.781,729.547 704.281,719.047 712.5,710C 714.898,708.476 717.231,706.976 719.5,705.5 Z" />
<path style="opacity:1" fill="#562555" d="M 195.5,658.5 C 196.117,658.611 196.617,658.944 197,659.5C 197.333,672.167 197.667,684.833 198,697.5C 211.856,683.081 227.689,680.581 245.5,690C 252.689,696.21 256.855,704.043 258,713.5C 258.667,734.5 258.667,755.5 258,776.5C 257.25,777.126 256.416,777.626 255.5,778C 249.167,778.667 242.833,778.667 236.5,778C 236,777.5 235.5,777 235,776.5C 234.667,757.5 234.333,738.5 234,719.5C 229.822,706.995 221.322,702.828 208.5,707C 205.798,708.012 203.465,709.512 201.5,711.5C 201.19,710.262 200.69,710.262 200,711.5C 199,713.5 198,715.5 197,717.5C 196.171,737.004 196.338,756.338 197.5,775.5C 196.942,776.79 195.942,777.623 194.5,778C 188.5,778.667 182.5,778.667 176.5,778C 175.584,777.722 174.918,777.222 174.5,776.5C 175.499,737.337 175.832,698.004 175.5,658.5C 182.167,658.5 188.833,658.5 195.5,658.5 Z" />
<path style="opacity:1" fill="#210020" d="M 532.5,687.5 C 532.333,716.835 532.5,746.169 533,775.5C 534.38,776.256 534.547,776.922 533.5,777.5C 532.883,777.389 532.383,777.056 532,776.5C 531.169,746.664 531.336,716.997 532.5,687.5 Z" />
<path style="opacity:1" fill="#1e021c" d="M 591.5,777.5 C 590.504,777.586 589.671,777.252 589,776.5 C 588.5,758.503 588.333,740.503 588.5,722.5C 589.339,739.426 589.839,757.093 590,775.5C 590.717,776.044 591.217,776.711 591.5,777.5 Z" />
<path style="opacity:1" fill="#360734" d="M 807.5,687.5 C 800.578,687.188 793.744,687.521 787,688.5C 786.333,717.5 786.333,746.5 787,775.5C 793.744,776.479 800.578,776.812 807.5,776.5C 807.833,711.167 808.167,711.167 808.5,776.5C 808.082,777.222 807.416,777.722 806.5,778C 800.167,778.667 793.833,778.667 787.5,778C 787,777.5 786.5,777 786,776.5C 785.333,746.833 785.333,717.167 786,687.5C 793.265,686.173 800.432,686.173 807.5,687.5 Z" />
<path style="opacity:1" fill="#310432" d="M 201.5,711.5 C 200.073,714.024 198.906,716.69 198,719.5C 197.5,738.164 197.333,756.83 197.5,775.5C 196.338,756.338 196.171,737.004 197,717.5C 198,715.5 199,713.5 200,711.5C 200.69,710.262 201.19,710.262 201.5,711.5 Z" />
</svg>