<svg xmlns="http://www.w3.org/2000/svg" xmlns:xlink="http://www.w3.org/1999/xlink" fill="none" version="1.1" width="17.5" height="20" viewBox="0 0 17.5 20"><g transform="matrix(1,0,0,-1,0,40)"><path d="M5.625,34.375L5.625,32.5L5.625,34.375L5.625,32.5L11.875,32.5L11.875,34.375Q11.8359,35.7031,10.9766,36.601600000000005Q10.0781,37.460899999999995,8.75,37.5Q7.42188,37.460899999999995,6.52344,36.601600000000005Q5.66406,35.7031,5.625,34.375ZM3.125,32.5L3.125,34.375L3.125,32.5L3.125,34.375Q3.20312,36.7578,4.76562,38.3594Q6.36719,39.9219,8.75,40Q11.1328,39.9219,12.7344,38.3594Q14.2969,36.7578,14.375,34.375L14.375,32.5L15,32.5Q16.0547,32.4609,16.7578,31.7578Q17.4609,31.0547,17.5,30L17.5,22.5Q17.4609,21.44531,16.7578,20.742188Q16.0547,20.0390625,15,20L2.5,20Q1.44531,20.0390625,0.742188,20.742188Q0.0390625,21.44531,0,22.5L0,30Q0.0390625,31.0547,0.742188,31.7578Q1.44531,32.4609,2.5,32.5L3.125,32.5Z" fill="#000000" fill-opacity="1" style="mix-blend-mode:passthrough"/></g></svg>