<svg version="1.1" id="Layer_1" xmlns="http://www.w3.org/2000/svg" xmlns:xlink="http://www.w3.org/1999/xlink" x="0px" y="0px" width="100%px" viewBox="0 0 1024 1024" enable-background="new 0 0 1024 1024" xml:space="preserve" height="100px" transform="rotate(0) scale(1, 1)">
<path fill="#fff04d" opacity="1.000000" stroke="none" d="&#10;M632.138855,525.774414 &#10;&#9;C658.062683,538.185425 685.184204,545.460571 712.907898,550.823792 &#10;&#9;C734.767639,555.052673 756.868530,556.025574 779.056213,556.036804 &#10;&#9;C781.383240,556.037964 783.969299,555.537842 785.920959,557.618164 &#10;&#9;C784.692688,559.765442 782.846191,559.194641 781.295654,559.348328 &#10;&#9;C753.284607,562.125488 725.307983,564.924744 698.078918,572.754517 &#10;&#9;C659.126099,583.955444 625.355896,603.647278 596.903748,632.597046 &#10;&#9;C566.690308,663.338806 546.950562,700.101440 533.618225,740.696899 &#10;&#9;C524.083191,769.730225 520.364807,799.735046 518.044373,830.022705 &#10;&#9;C516.351318,852.119995 514.924988,874.217834 515.099304,896.393555 &#10;&#9;C515.116272,898.550293 514.853821,900.674072 513.588806,902.917786 &#10;&#9;C511.370270,901.420044 511.912292,899.339539 511.894897,897.539612 &#10;&#9;C511.506836,857.350708 509.150269,817.307983 502.730774,777.586731 &#10;&#9;C493.559509,720.838379 470.255402,671.118958 428.798370,630.645752 &#10;&#9;C395.651672,598.285706 356.424408,577.299622 310.921906,567.927307 &#10;&#9;C288.802368,563.371277 266.421906,561.757751 243.992874,560.259399 &#10;&#9;C240.727005,560.041199 240.722672,560.106201 238.090057,558.557678 &#10;&#9;C238.802383,556.704773 240.475403,557.032715 241.887115,556.969421 &#10;&#9;C275.419556,555.466125 308.570923,551.134766 341.072144,542.682678 &#10;&#9;C368.010254,535.677246 394.734436,528.135193 418.257416,512.159363 &#10;&#9;C455.344604,486.971161 479.613129,452.612366 492.684082,410.065430 &#10;&#9;C500.389923,384.982269 504.891815,359.251862 506.651794,333.096436 &#10;&#9;C507.993164,313.162140 508.717285,293.186401 509.724731,273.229523 &#10;&#9;C509.797455,271.788788 509.602295,270.250610 511.015137,268.837402 &#10;&#9;C512.986206,270.279907 512.875244,272.347809 512.952515,274.184937 &#10;&#9;C514.058167,300.497711 516.486145,326.706055 520.444580,352.721008 &#10;&#9;C528.082275,402.916870 544.373352,449.405579 580.704834,486.713501 &#10;&#9;C595.775208,502.188934 612.673767,515.402344 632.138855,525.774414 &#10;M518.541809,479.061432 &#10;&#9;C517.754578,477.195312 518.229187,474.783447 515.610718,472.749329 &#10;&#9;C515.061340,475.725555 514.579590,478.103668 514.187317,480.496399 &#10;&#9;C509.871735,506.822144 496.349182,527.087585 473.988342,541.509583 &#10;&#9;C461.953949,549.271301 448.730774,554.132263 434.857605,557.399353 &#10;&#9;C432.731873,557.899963 430.404144,558.045898 427.854614,560.092102 &#10;&#9;C451.052704,564.036865 472.159760,571.182678 488.207214,587.969604 &#10;&#9;C504.044800,604.536926 510.370117,625.896240 515.208069,647.986511 &#10;&#9;C519.929077,626.046387 525.085022,604.765869 540.757812,587.845276 &#10;&#9;C556.368103,570.992126 576.614258,563.115845 599.234558,557.783081 &#10;&#9;C595.602478,555.785706 592.570007,555.831787 589.732117,555.243652 &#10;&#9;C573.478394,551.875122 558.635559,545.863892 546.336182,534.143677 &#10;&#9;C530.681396,519.226074 523.050598,500.414154 518.541809,479.061432 &#10;z"/>
<path fill="#fff04d" opacity="1.000000" stroke="none" d="&#10;M306.933563,276.262421 &#10;&#9;C308.963684,290.223755 311.425842,303.623352 316.335449,316.464935 &#10;&#9;C322.885284,333.596710 334.854462,345.587311 351.502258,352.752563 &#10;&#9;C368.683411,360.147278 386.893768,363.161011 405.497009,364.061188 &#10;&#9;C407.392944,364.152954 409.548615,363.479980 411.007294,365.457611 &#10;&#9;C410.287201,367.624634 408.374115,367.192261 406.824646,367.474274 &#10;&#9;C388.965363,370.724396 371.072754,373.850647 354.175476,380.869385 &#10;&#9;C335.352936,388.687805 322.919312,402.517914 316.193268,421.594727 &#10;&#9;C310.663940,437.277344 308.684662,453.631836 307.307709,470.088135 &#10;&#9;C307.173462,471.692688 307.670685,473.441803 306.354034,474.890564 &#10;&#9;C304.085541,474.614807 304.731842,472.689331 304.531891,471.431885 &#10;&#9;C302.651581,459.606628 300.998169,447.768494 298.133759,436.092621 &#10;&#9;C289.333984,400.222900 266.551727,379.764771 230.491791,373.365387 &#10;&#9;C221.635101,371.793610 212.782684,370.263641 203.854645,369.169952 &#10;&#9;C202.258713,368.974426 200.459198,369.079468 199.531189,367.140411 &#10;&#9;C200.094223,364.673828 202.322296,365.172485 203.929153,364.926178 &#10;&#9;C216.260849,363.035980 228.666534,361.772217 240.930740,359.267914 &#10;&#9;C265.001190,354.352814 281.096741,340.127502 290.653107,318.011871 &#10;&#9;C298.075775,300.834015 300.231720,282.430054 302.557739,264.093689 &#10;&#9;C302.720642,262.809296 302.320160,261.395142 303.913147,259.902161 &#10;&#9;C306.408752,265.109558 305.602203,270.694031 306.933563,276.262421 &#10;M275.000427,364.750397 &#10;&#9;C270.966431,365.374268 266.932434,365.998138 262.898407,366.621979 &#10;&#9;C289.519714,369.320923 304.588562,382.856171 304.628937,410.945007 &#10;&#9;C305.988129,399.807800 307.320129,388.916168 314.647278,380.243195 &#10;&#9;C322.237427,371.258942 333.740936,370.487610 344.622345,367.000214 &#10;&#9;C316.393616,366.228241 305.538544,349.678833 304.754944,323.879639 &#10;&#9;C300.212769,352.827454 294.217255,361.284088 275.000427,364.750397 &#10;z"/>
<path fill="#fff04d" opacity="1.000000" stroke="none" d="&#10;M646.168152,294.904114 &#10;&#9;C647.830200,300.741760 649.190613,306.245239 651.046204,311.576385 &#10;&#9;C657.603760,330.417145 672.792786,338.399811 690.781189,342.724182 &#10;&#9;C698.722778,344.633331 706.750977,346.033051 714.906677,346.650757 &#10;&#9;C716.148254,346.744781 717.663757,346.382172 718.310852,348.360260 &#10;&#9;C716.593933,350.280212 714.119629,349.858185 711.944946,350.133240 &#10;&#9;C699.613037,351.693115 687.788147,355.156189 676.625977,360.474060 &#10;&#9;C660.374695,368.216400 650.830139,381.580933 646.389709,398.770966 &#10;&#9;C644.351562,406.661285 642.047974,414.516113 641.887817,422.770020 &#10;&#9;C641.862488,424.075928 641.854004,425.475800 640.394897,426.281952 &#10;&#9;C638.116882,425.639648 638.845459,423.680847 638.679016,422.180725 &#10;&#9;C637.443665,411.047394 635.135315,400.205750 631.005310,389.724670 &#10;&#9;C624.036560,372.039246 610.684814,362.038300 593.088379,356.258759 &#10;&#9;C583.372864,353.067719 573.585815,350.753479 563.490234,349.493011 &#10;&#9;C562.353638,349.351074 561.229919,349.061737 560.124329,348.754242 &#10;&#9;C559.914612,348.695892 559.818665,348.228607 559.645447,347.903503 &#10;&#9;C560.668701,345.980255 562.491394,346.677673 564.046265,346.598938 &#10;&#9;C577.409485,345.921875 590.516968,344.045166 603.087708,339.112366 &#10;&#9;C618.852539,332.926331 629.599121,322.306458 633.838684,305.573547 &#10;&#9;C636.540344,294.910492 638.919312,284.203369 639.709351,273.199249 &#10;&#9;C639.789734,272.079041 639.601624,270.807343 642.023499,269.752258 &#10;&#9;C643.265137,278.190338 644.049011,286.473480 646.168152,294.904114 &#10;M653.754211,354.126953 &#10;&#9;C656.716614,352.687866 659.679016,351.248749 664.428406,348.941559 &#10;&#9;C650.781433,346.247406 644.934692,337.431793 641.171936,326.059174 &#10;&#9;C638.723389,338.969452 630.523010,345.970642 618.655273,350.033020 &#10;&#9;C630.632507,353.513672 637.527710,361.369934 640.822693,373.172791 &#10;&#9;C643.923828,365.880402 646.410583,358.764343 653.754211,354.126953 &#10;z"/>
<path fill="#fff04d" opacity="1.000000" stroke="none" d="&#10;M419.812256,707.644775 &#10;&#9;C421.307709,707.937012 422.576843,707.937683 423.007324,709.838440 &#10;&#9;C415.493622,710.979553 408.023926,712.097412 400.560028,713.252625 &#10;&#9;C394.614502,714.172852 388.900513,715.975037 383.216766,717.887085 &#10;&#9;C366.075226,723.653503 357.280640,736.741882 352.179749,753.130310 &#10;&#9;C349.355652,762.203674 346.972839,771.374084 345.440826,780.760132 &#10;&#9;C345.245514,781.956604 345.683197,783.523193 343.582367,784.214722 &#10;&#9;C342.157043,780.849792 342.171722,777.223877 341.651154,773.757446 &#10;&#9;C340.263824,764.519592 338.359772,755.467407 335.000092,746.681824 &#10;&#9;C329.005890,731.007141 318.285645,720.989380 301.769104,717.294678 &#10;&#9;C290.269592,714.722290 278.853729,711.773438 266.845337,709.988342 &#10;&#9;C267.753204,707.076233 270.120667,707.538940 271.779053,707.223022 &#10;&#9;C282.575165,705.166016 293.269806,702.788086 303.828217,699.653687 &#10;&#9;C321.774048,694.326416 331.649963,681.726440 336.710144,664.500366 &#10;&#9;C339.812408,653.939453 341.270905,643.027649 343.520508,632.284668 &#10;&#9;C343.752228,631.178284 343.524414,629.908020 344.634705,629.109741 &#10;&#9;C346.160370,628.958923 346.158447,630.140381 346.245911,631.071777 &#10;&#9;C347.403168,643.396240 350.694824,655.284546 353.998047,667.124451 &#10;&#9;C358.278046,682.465637 368.468842,692.585022 383.188934,698.423706 &#10;&#9;C394.884064,703.062622 407.095215,705.537781 419.812256,707.644775 &#10;M322.846436,709.642639 &#10;&#9;C336.948639,711.673035 342.143921,721.614319 344.271484,735.605408 &#10;&#9;C346.727753,728.002014 348.057922,721.513306 352.426544,716.493713 &#10;&#9;C356.869873,711.388245 363.706299,710.441772 369.879425,707.019714 &#10;&#9;C354.789764,705.903015 348.071960,696.405701 344.876282,683.066406 &#10;&#9;C343.074463,686.862366 341.795227,690.244324 340.723633,693.690857 &#10;&#9;C338.764618,699.991333 334.720703,703.744934 328.139679,704.968018 &#10;&#9;C324.573822,705.630737 321.115814,706.873596 316.481354,708.170288 &#10;&#9;C319.203674,708.814453 320.650146,709.156799 322.846436,709.642639 &#10;z"/>
<path fill="#fff04d" opacity="1.000000" stroke="none" d="&#10;M796.769775,428.775909 &#10;&#9;C806.686584,425.771759 810.884277,418.338867 813.712219,409.538452 &#10;&#9;C816.811829,399.892670 818.727234,389.957886 821.104858,379.305115 &#10;&#9;C823.609192,382.952820 823.428467,386.504791 824.257080,389.724457 &#10;&#9;C826.665161,399.080505 829.038513,408.428864 833.556458,417.074890 &#10;&#9;C836.467102,422.644989 840.824707,426.423523 846.588867,428.887360 &#10;&#9;C855.543701,432.715057 864.959961,434.789886 874.423157,436.759338 &#10;&#9;C875.973511,437.082031 877.838013,436.621796 878.981567,438.576294 &#10;&#9;C876.888489,440.932617 873.845581,440.648010 871.218018,441.215607 &#10;&#9;C861.892151,443.230133 852.940674,446.223236 844.335266,450.370209 &#10;&#9;C837.141174,453.837097 832.273193,459.210205 830.159668,466.877686 &#10;&#9;C827.773560,475.534271 825.621948,484.255829 823.403992,492.958221 &#10;&#9;C822.959961,494.700195 822.848145,496.549194 821.488098,498.048767 &#10;&#9;C819.192993,496.782684 819.788940,494.555359 819.716980,492.741119 &#10;&#9;C819.279297,481.706512 815.641174,471.557556 811.277161,461.608826 &#10;&#9;C808.667969,455.660675 804.205566,451.667603 798.128418,449.338959 &#10;&#9;C787.844604,445.398468 777.415894,441.995911 766.544067,440.063232 &#10;&#9;C764.957703,439.781219 763.190491,439.828430 761.191284,437.505646 &#10;&#9;C773.488281,435.264496 785.347717,433.528961 796.769775,428.775909 &#10;M818.046509,429.416138 &#10;&#9;C815.482849,434.403992 810.400024,436.410706 804.527161,439.655640 &#10;&#9;C814.668274,442.180115 818.819580,449.079010 822.602234,457.969543 &#10;&#9;C825.784729,448.668915 830.125488,441.850159 839.095154,439.017426 &#10;&#9;C830.068542,436.188995 825.403381,429.862152 822.305847,421.057373 &#10;&#9;C820.617004,424.406342 819.511475,426.598694 818.046509,429.416138 &#10;z"/>
<path fill="#fff04d" opacity="1.000000" stroke="none" d="&#10;M693.448120,690.742371 &#10;&#9;C684.686646,692.977783 676.332642,695.247742 667.896667,697.155701 &#10;&#9;C661.041626,698.706116 656.730042,702.724182 654.641235,709.309753 &#10;&#9;C651.774414,718.348145 648.935730,727.395508 646.049744,736.427734 &#10;&#9;C645.469360,738.243896 645.508057,740.383972 643.014832,742.360657 &#10;&#9;C641.649841,737.383301 640.421570,732.975098 639.234314,728.555847 &#10;&#9;C637.982117,723.894958 636.757385,719.226624 635.541626,714.556030 &#10;&#9;C633.097290,705.165527 627.426514,699.256592 617.717163,697.129639 &#10;&#9;C608.783936,695.172668 599.964355,692.699341 591.085144,690.491943 &#10;&#9;C589.489319,690.095154 587.799683,689.997803 586.611084,688.772095 &#10;&#9;C586.662048,686.662109 588.278137,686.862122 589.462341,686.536621 &#10;&#9;C597.806213,684.242737 606.128906,681.864929 614.509888,679.714905 &#10;&#9;C625.571960,676.877075 633.186340,670.749878 635.785339,659.097961 &#10;&#9;C637.486694,651.470459 639.733398,643.964844 641.716675,636.399597 &#10;&#9;C642.046936,635.139771 641.974182,633.712280 643.406067,632.867798 &#10;&#9;C645.763916,633.970642 645.569458,636.404968 646.062439,638.356934 &#10;&#9;C648.141785,646.590637 650.683167,654.680298 653.142334,662.804016 &#10;&#9;C655.823181,671.660400 661.526855,676.847778 670.252319,679.230408 &#10;&#9;C677.956787,681.334351 685.618774,683.595825 693.284241,685.839905 &#10;&#9;C694.969910,686.333374 696.987610,686.204102 698.138794,688.109497 &#10;&#9;C697.618408,690.531738 695.361816,689.984680 693.448120,690.742371 &#10;M657.732666,685.774109 &#10;&#9;C649.321533,684.169006 646.465393,677.376221 643.520813,670.112000 &#10;&#9;C640.955261,679.486938 635.255493,685.328064 625.836548,687.695496 &#10;&#9;C630.484802,690.427795 635.513672,691.206909 638.538574,695.349426 &#10;&#9;C641.334045,699.177734 642.117004,703.888489 644.168823,708.316711 &#10;&#9;C645.819458,697.383362 650.649048,689.459534 662.175659,687.089172 &#10;&#9;C660.920166,686.726929 659.664734,686.364685 657.732666,685.774109 &#10;z"/>
<path fill="#fff04d" opacity="1.000000" stroke="none" d="&#10;M173.167221,570.785034 &#10;&#9;C177.991272,589.940491 193.158417,592.821289 209.570679,593.960693 &#10;&#9;C208.137405,597.080444 205.807816,596.493347 204.067032,596.967773 &#10;&#9;C201.026733,597.796387 197.878815,598.231995 194.841797,599.070557 &#10;&#9;C178.730545,603.518982 173.698318,615.875610 172.314987,630.810364 &#10;&#9;C172.162048,632.461548 171.935013,634.109680 171.645554,635.742004 &#10;&#9;C171.567886,636.180054 171.133286,636.554810 170.179916,637.976685 &#10;&#9;C167.961029,626.590088 167.253983,615.403809 159.316223,607.078430 &#10;&#9;C151.393723,598.769165 140.319916,597.599609 129.849579,594.313416 &#10;&#9;C139.980789,592.335022 150.864273,593.151794 158.916473,585.440491 &#10;&#9;C166.824585,577.867188 167.734726,567.257507 170.782028,557.417725 &#10;&#9;C171.546722,561.741699 172.311417,566.065674 173.167221,570.785034 &#10;z"/>
<path fill="#fff04d" opacity="1.000000" stroke="none" d="&#10;M727.422607,256.501892 &#10;&#9;C722.973511,254.085373 718.110535,254.320251 712.574158,252.264053 &#10;&#9;C722.460205,248.329193 733.067688,247.768204 738.065491,237.827606 &#10;&#9;C742.443787,229.119217 744.812317,219.884430 744.853088,210.021866 &#10;&#9;C747.546448,210.594147 747.138672,212.322266 747.334717,213.721588 &#10;&#9;C747.795532,217.009949 748.055908,220.339172 748.730164,223.582703 &#10;&#9;C752.138672,239.981094 760.616394,248.031662 777.170654,250.726379 &#10;&#9;C778.955383,251.016922 780.748352,251.196777 783.433716,253.051422 &#10;&#9;C772.631836,254.967087 762.110535,255.761429 755.521423,264.467285 &#10;&#9;C749.274231,272.721405 748.817505,282.903656 747.956665,293.874084 &#10;&#9;C744.711304,290.069733 745.324280,286.433929 744.749329,283.207489 &#10;&#9;C742.747742,271.975281 739.080872,261.896942 727.422607,256.501892 &#10;z"/>
<path fill="#fff04d" opacity="1.000000" stroke="none" d="&#10;M788.276245,687.294434 &#10;&#9;C789.448486,684.586975 789.069702,681.634094 791.734009,679.365417 &#10;&#9;C794.925598,686.910583 795.942078,695.151367 801.870972,701.041016 &#10;&#9;C807.707764,706.839233 815.758850,707.465942 823.557556,710.552673 &#10;&#9;C806.713440,713.615051 792.995483,719.485779 792.440491,739.811584 &#10;&#9;C789.550842,731.939453 787.746216,724.389221 781.833069,718.879578 &#10;&#9;C775.832886,713.288940 767.561035,713.358276 760.029053,709.871277 &#10;&#9;C773.178955,706.800049 784.589233,702.035522 788.276245,687.294434 &#10;z"/>
<path fill="#fff04d" opacity="1.000000" stroke="none" d="&#10;M510.606506,144.485825 &#10;&#9;C513.650024,139.760696 513.842346,134.219025 516.943787,129.605835 &#10;&#9;C518.788696,135.572754 519.375488,141.876373 523.933167,146.379547 &#10;&#9;C528.420288,150.812973 534.598877,151.833801 540.438660,153.841995 &#10;&#9;C534.429565,156.535172 527.418091,156.503174 522.849792,161.389969 &#10;&#9;C518.244019,166.316864 519.305176,173.552536 516.751831,180.811859 &#10;&#9;C512.763062,173.805588 514.690552,166.080582 509.606720,161.024551 &#10;&#9;C504.477234,155.923111 497.395874,155.682312 490.811523,153.624191 &#10;&#9;C497.683075,150.999329 505.556580,151.231308 510.606506,144.485825 &#10;z"/>
<path fill="#fff04d" opacity="1.000000" stroke="none" d="&#10;M363.508698,878.429810 &#10;&#9;C365.429688,878.034241 367.083008,877.879395 368.729645,877.671692 &#10;&#9;C376.899689,876.641052 381.241852,872.723450 383.267303,864.835144 &#10;&#9;C383.689362,863.191406 383.193451,861.050293 386.210938,859.537354 &#10;&#9;C387.386932,872.984619 396.111938,877.692383 408.888672,878.356995 &#10;&#9;C394.238800,879.033508 388.061127,887.639404 386.437744,900.697388 &#10;&#9;C383.701538,898.841675 384.174408,897.017151 383.970978,895.441345 &#10;&#9;C382.843323,886.707031 379.110992,882.943848 370.355713,881.329529 &#10;&#9;C367.885284,880.874023 364.756836,881.764526 363.508698,878.429810 &#10;z"/>
<path fill="#fff04d" opacity="1.000000" stroke="none" d="&#10;M432.029388,309.314697 &#10;&#9;C431.682922,295.605530 427.368988,290.936920 413.899048,289.297668 &#10;&#9;C413.110962,289.201813 412.337402,288.986481 411.322021,288.095856 &#10;&#9;C416.817352,286.661316 422.441864,285.840851 426.707031,281.718750 &#10;&#9;C431.164185,277.411072 431.003021,271.315063 433.200775,265.908752 &#10;&#9;C435.964203,270.282135 434.600250,275.728455 437.893158,279.789429 &#10;&#9;C441.211823,283.882233 445.820374,285.558716 451.771790,287.527252 &#10;&#9;C446.225037,290.911896 440.160889,291.275360 437.356842,296.635925 &#10;&#9;C434.824341,301.477417 435.798828,306.971954 434.623596,311.905914 &#10;&#9;C432.270691,312.129974 432.336395,310.768524 432.029388,309.314697 &#10;z"/>
<path fill="#fff04d" opacity="1.000000" stroke="none" d="&#10;M704.772949,825.614868 &#10;&#9;C704.367249,815.081726 697.462708,811.115845 687.284180,809.149170 &#10;&#9;C692.797791,805.930664 698.375793,806.547180 701.244751,802.049927 &#10;&#9;C703.804138,798.038025 705.047668,793.454834 707.196228,788.565857 &#10;&#9;C708.432495,799.767151 714.247498,806.237305 725.460876,807.328064 &#10;&#9;C724.511658,809.861084 722.928162,809.988159 721.590454,810.190613 &#10;&#9;C713.887939,811.356079 709.462585,815.728943 707.964844,823.376526 &#10;&#9;C707.260681,826.971924 707.023621,826.925476 704.772949,825.614868 &#10;z"/>
<path fill="#fff04d" opacity="1.000000" stroke="none" d="&#10;M423.701843,407.410431 &#10;&#9;C419.893799,403.173309 414.764618,403.585876 408.799561,402.570984 &#10;&#9;C413.547882,398.550995 419.591187,400.636230 422.852081,396.460297 &#10;&#9;C425.973236,392.463287 425.183960,387.356262 426.786743,381.881104 &#10;&#9;C430.520935,386.618408 427.843140,391.956085 430.724030,395.728394 &#10;&#9;C433.759308,399.702850 439.183868,398.818695 443.549896,401.594727 &#10;&#9;C439.386841,404.214264 434.585602,402.881287 431.530487,406.245605 &#10;&#9;C428.685150,409.378967 429.988586,413.971832 427.490631,417.579956 &#10;&#9;C424.621979,414.568665 426.669708,410.264160 423.701843,407.410431 &#10;z"/>
<path fill="#fff04d" opacity="1.000000" stroke="none" d="&#10;M282.809570,640.791016 &#10;&#9;C279.237122,642.764465 278.701599,646.175232 277.316925,649.747620 &#10;&#9;C274.866974,644.255371 271.620361,639.843750 265.078857,638.233643 &#10;&#9;C271.204712,636.253296 274.324677,632.153625 276.092316,626.163818 &#10;&#9;C278.170654,632.484314 281.502686,636.926331 288.811493,636.779297 &#10;&#9;C287.052887,639.912476 284.581787,639.352844 282.809570,640.791016 &#10;z"/>
<path fill="#fff04d" opacity="1.000000" stroke="none" d="&#10;M338.586548,213.670197 &#10;&#9;C339.964935,218.700195 344.537445,219.384018 348.406830,221.742355 &#10;&#9;C340.810913,222.757477 337.966156,227.785538 336.533203,234.661362 &#10;&#9;C334.802979,228.769135 333.421600,223.199203 326.224182,221.767853 &#10;&#9;C331.493073,219.406769 334.042877,215.271927 335.584229,210.782013 &#10;&#9;C337.763641,211.082886 337.956207,212.344772 338.586548,213.670197 &#10;z"/>
<path fill="#fff04d" opacity="1.000000" stroke="none" d="&#10;M706.263977,642.689209 &#10;&#9;C704.747803,639.069336 701.277344,638.085083 697.746277,635.465515 &#10;&#9;C703.531982,633.347656 706.607178,629.557556 708.432068,624.281067 &#10;&#9;C710.589417,629.234558 712.907349,633.532532 719.586426,635.027771 &#10;&#9;C714.748413,638.400085 710.262573,640.358704 709.605774,645.259155 &#10;&#9;C707.263428,645.638794 707.062866,644.068787 706.263977,642.689209 &#10;z"/>
<path fill="#fff04d" opacity="1.000000" stroke="none" d="&#10;M370.365417,493.611572 &#10;&#9;C364.729309,495.475311 365.346283,500.787140 363.096954,505.117645 &#10;&#9;C362.556793,497.761169 359.113617,493.136505 351.428406,491.628601 &#10;&#9;C356.860535,489.512024 361.875519,487.607574 363.471924,481.092163 &#10;&#9;C364.659088,486.968628 368.134735,489.864441 372.959198,490.851105 &#10;&#9;C373.076263,493.064636 371.693787,493.062012 370.365417,493.611572 &#10;z"/>
<path fill="#fff04d" opacity="1.000000" stroke="none" d="&#10;M170.641327,469.140808 &#10;&#9;C171.657486,469.936035 172.727112,470.227570 173.025757,472.121918 &#10;&#9;C167.935043,472.237610 165.367142,475.332916 165.207642,480.529449 &#10;&#9;C164.664856,480.176727 154.145554,473.340759 153.549789,472.953613 &#10;&#9;C158.152847,470.505890 159.854523,467.329956 154.231033,462.662964 &#10;&#9;C159.015976,463.350220 162.829712,464.632019 164.666748,459.627533 &#10;&#9;C165.146606,463.929962 166.579208,467.214111 170.641327,469.140808 &#10;z"/>
<path fill="#fff04d" opacity="1.000000" stroke="none" d="&#10;M610.775024,776.067688 &#10;&#9;C615.519348,776.992188 615.991333,782.861511 621.198364,783.618896 &#10;&#9;C617.112305,786.815308 614.501160,790.247559 612.698425,796.083496 &#10;&#9;C610.093140,790.069031 607.780273,785.730286 601.281250,784.571411 &#10;&#9;C605.540344,781.684387 609.093689,780.057434 610.775024,776.067688 &#10;z"/>
<path fill="#fff04d" opacity="1.000000" stroke="none" d="&#10;M739.749939,488.944733 &#10;&#9;C740.155884,490.132019 739.873657,491.208496 738.849121,490.620239 &#10;&#9;C736.024170,488.998260 736.176453,491.803925 735.282410,492.854156 &#10;&#9;C733.212463,492.892365 733.841370,490.201874 731.804199,490.010529 &#10;&#9;C731.163208,491.079620 730.446106,492.275665 729.212891,494.332550 &#10;&#9;C728.942017,489.011963 727.634094,484.875610 728.426758,480.387878 &#10;&#9;C728.802063,478.263519 730.543518,478.638763 731.258606,477.506927 &#10;&#9;C733.988586,481.096985 733.972534,476.590851 735.294739,476.111694 &#10;&#9;C738.812805,478.790710 738.953186,484.590698 744.821045,484.851562 &#10;&#9;C742.693481,487.702789 740.484009,485.309387 738.585571,486.524597 &#10;&#9;C738.935242,487.261810 739.278809,487.986023 739.749939,488.944733 &#10;z"/>
<path fill="#fff04d" opacity="1.000000" stroke="none" d="&#10;M859.672607,566.716553 &#10;&#9;C862.590210,565.068420 862.880920,561.746155 865.499207,559.651123 &#10;&#9;C867.291077,563.789734 870.055664,566.877991 874.676025,568.684753 &#10;&#9;C871.774231,572.319214 866.980347,573.633972 866.251282,579.374146 &#10;&#9;C863.217896,575.551208 861.091553,572.591919 857.887268,570.492676 &#10;&#9;C855.583069,568.983093 858.233459,567.895081 859.672607,566.716553 &#10;z"/>
<path fill="#fff04d" opacity="1.000000" stroke="none" d="&#10;M654.359131,210.284424 &#10;&#9;C655.787964,208.671417 655.821289,206.542221 657.608032,205.486557 &#10;&#9;C660.026062,206.406113 659.294861,209.231506 660.820679,210.757156 &#10;&#9;C662.373474,212.309738 664.663879,212.558777 666.881775,214.467117 &#10;&#9;C662.187439,216.452286 659.254944,219.563446 657.788208,225.152618 &#10;&#9;C655.160278,220.514145 654.207336,216.085754 648.896057,214.916016 &#10;&#9;C650.995911,213.174637 652.569885,211.869339 654.359131,210.284424 &#10;z"/>
</svg>